<svg id="Layer_1" enable-background="new 0 0 512 512" height="512" viewBox="0 0 512 512" width="512" xmlns="http://www.w3.org/2000/svg"><g id="Layer_2_00000018234086228578635520000000576210893328519563_"><g id="_60.PumpkinEmoji"><g id="Pumkin"><path d="m357.4 13.9c-5.2-7.6-15.6-12.1-31-13.3-5.2-.4-10.2-.6-14.8-.6-43.1 0-64.2 17.6-82.6 44-8.7 12.5-15.4 34.1-20.3 56.3-4.4-5.7-9.6-10.6-15.5-14.7-6.9-4.7-14.6-8.1-22.8-9.9-10.8-2.2-21.9-1.8-32.5 1.1-5.9-5.6-14.5-7.8-23.4-8.8-18.6-1.9-42 8.9-42 8.9s43 10.9 42.3 16.7c-5.6 9.5-6.2 21.5-4.1 28.2 1.9 6.2 8.5 16.4 19.1 18.6 4.3.9 12.6 1.2 20.6-7.4 8.7-9.5 9.5-21.8 7.4-30.5 2.8.1 5.7.5 8.4 1.1 3.8.8 7.6 2.1 11 4 17.8 9.9 22.3 36.9 22.3 47.4 0 3.6-2.5 22.4-2.6 23.7l-.9 10.7h121.7l-5.3-13.5c-5.4-13.8-16.4-89.4-14.1-112.9 1.8-18.5 25.5-23.7 30-24 1.6-.1 3.4-.1 4.9-.1h4.2c8.2 0 19.5 0 22.5-9.5 1.6-5.2.7-10.9-2.5-15.5z" fill="#7a9826"/><path d="m256 512c-20.3 0-37.7-7.8-52.8-23.9-7.5 4-15.9 6.1-24.4 6.1-11.1 0-21.6-3.6-31.5-10.9-5.9 1.4-11.9 2-17.9 2-27.4 0-77.4-13.9-104.7-106.6-27.6-93.6-4.4-144.2 12-166 15.3-20.4 37.1-32.7 58.1-32.7 1.5 0 2.9.1 4.4.2 7.8-10.7 27-32.1 56.6-32.1 10 0 20.3 2.5 30.5 7.5 10.8-9.9 36.1-29.2 69.6-29.2s58.9 19.3 69.7 29.2c10.3-5 20.5-7.5 30.5-7.5 29.6 0 48.8 21.4 56.6 32.1 1.5-.1 2.9-.2 4.4-.2 21.1 0 42.8 12.3 58.2 32.8 16.3 21.8 39.5 72.3 12 166-27.3 92.8-77.3 106.6-104.7 106.6-6 0-12-.6-17.9-2-9.9 7.2-20.5 10.9-31.5 10.9-8.5-.1-16.8-2.1-24.3-6.1-15.2 16-32.6 23.8-52.9 23.8z" fill="#ff8d0a"/></g><path d="m262.3 397.6c1.5.8 2.7 1.3 3.9 1.9 4.8 2.5 9.3 5.5 12.7 9.9 4.9 6.3 4.9 12.5-.1 18.8-3.8 4.8-8.7 8.1-14.2 10.6-7.2 3.2-15 5.1-22.9 5.7-3.3.3-5.3-1-6-3.6s.7-4.5 3.8-5.9c4.4-1.9 8.8-3.7 13-5.9 2.3-1.3 4.3-3.1 6-5.1 2.9-3.4 3-7.4 0-10.5-2.8-2.7-6-5.1-9.4-6.9-3.1-1.6-6.4-3-9.7-4.2-2.2-.9-3.4-2.4-3.4-4.8-.1-2.2 1.4-4.1 3.4-4.7 3.3-1.2 6.6-2.6 9.8-4.2 2.9-1.5 5.7-3.3 8.2-5.5 4.4-4.1 4.5-9.1.1-13.3-2.4-2.2-5-4-7.9-5.4-3.3-1.8-6.9-3-10.4-4.5-2.8-1.2-3.9-3.2-3.4-5.7s2.4-3.7 5.5-3.5c12.6.8 24.2 4.2 34.1 12.5.3.3.6.5.9.8 8.2 7.9 8.4 16.8 0 24.5-3.4 3.1-7.6 5.3-11.5 7.9-.8.3-1.5.6-2.5 1.1z" fill="#5b1500"/><g fill="#751100"><path d="m278.1 321h-46.3l23.2-55z"/><path d="m293.5 278.2s8.8-53.5 57.4-64.9c12.5-3 33 8.2 45.5 19.9 11.4 10.7 15.4 21.8 15.4 21.8s-36.4-14.3-55.8-10.8-62.5 34-62.5 34z"/><path d="m216.4 278.2s-8.8-53.5-57.4-64.9c-12.6-3-33.1 8.2-45.5 19.9-11.4 10.7-15.4 21.8-15.4 21.8s36.4-14.3 55.8-10.8 62.5 34 62.5 34z"/></g></g></g></svg>